<svg id="Layer_1" data-name="Layer 1" xmlns="http://www.w3.org/2000/svg" xmlns:xlink="http://www.w3.org/1999/xlink" viewBox="0 0 1080 1080"><defs><style>.cls-1{fill:url(#linear-gradient);}.cls-2{fill:url(#linear-gradient-2);}.cls-3{fill:url(#linear-gradient-3);}.cls-4{fill:url(#linear-gradient-4);}.cls-5{fill:url(#linear-gradient-5);}.cls-6{font-size:153.02px;fill:#1c0038;font-family:Constantia;}.cls-7{letter-spacing:0.02em;}</style><linearGradient id="linear-gradient" x1="571.73" y1="131.79" x2="912.38" y2="721.81" gradientUnits="userSpaceOnUse"><stop offset="0" stop-color="#1c0038"/><stop offset="1" stop-color="#5d3c94"/></linearGradient><linearGradient id="linear-gradient-2" x1="241.26" y1="684.37" x2="478.91" y2="272.74" xlink:href="#linear-gradient"/><linearGradient id="linear-gradient-3" x1="867.73" y1="747.58" x2="527.09" y2="157.56" xlink:href="#linear-gradient"/><linearGradient id="linear-gradient-4" x1="478.91" y1="272.74" x2="256.57" y2="657.85" xlink:href="#linear-gradient"/><linearGradient id="linear-gradient-5" x1="417.67" y1="600.61" x2="599.79" y2="285.16" xlink:href="#linear-gradient"/></defs><title>LOGO NOLAN ungu3</title><path class="cls-1" d="M612.4,108.31h0V505.1L779.46,734.79l32.66,44.9V290.35C812.12,189.81,722.7,108.31,612.4,108.31Z"/><path class="cls-2" d="M267.88,150.9V609.2c0,94.16,89.42,170.49,199.72,170.49h0V408.07Z"/><path class="cls-3" d="M612.4,108.31V505.1L779.46,734.79l32.66,44.9V737.1h0a1065.87,1065.87,0,0,0-149.86-545Z"/><path class="cls-4" d="M267.88,150.9h0a1065.87,1065.87,0,0,0,149.86,545l49.86,83.8V408.07Z"/><path class="cls-5" d="M347.91,212.79,697.36,680.18s-48.1,15.26-92.87-8.55-56,4.52-56,4.52,5.74-28.2,38-21.56c0,0-61.7-22.12-80.54-54.71,0,0,27.77,17.84,50.72,18.54,0,0-58.61-20.14-79.35-55.77,0,0,30.57,16.66,49.87,12.87,0,0-81.37-15.43-126.9-119.53s-97-301.32-158.09-313.39C199.28,134.12,189,185.75,189,185.75s-22.07-65.84,34.77-76.15C346.32,87.37,714.24,355.26,718.5,639.78l27.84,39A59.73,59.73,0,0,0,763.73,695h0a59.38,59.38,0,0,1,24.75,30.15l23.64,54.57Z"/><text class="cls-6" transform="translate(267.88 920.37)">NO<tspan class="cls-7" x="237.67" y="0">L</tspan><tspan x="326.44" y="0">AN</tspan></text></svg>